<svg width="142" height="142" viewBox="0 0 142 142" fill="none" xmlns="http://www.w3.org/2000/svg">
    <path
        d="M120.625 12.7941C117.746 9.90921 113.918 8.32031 109.844 8.32031H102.964V6.93359C102.964 3.11041 99.8535 0 96.0303 0H46.1084C42.2852 0 39.1748 3.11041 39.1748 6.93359V8.32031H32.2698C23.8771 8.32031 17.0414 15.1557 17.032 23.5573L16.918 126.729C16.9135 130.807 18.4963 134.641 21.3749 137.526C24.2537 140.411 28.0825 142 32.1558 142H109.73C118.123 142 124.959 135.165 124.968 126.763L125.082 23.5911C125.087 19.5134 123.504 15.6788 120.625 12.7941ZM47.4951 8.32031H94.6436V16.6406H47.4951V8.32031ZM116.656 126.754C116.652 130.573 113.545 133.68 109.73 133.68H32.1558C30.3043 133.68 28.5639 132.957 27.2554 131.646C25.9469 130.335 25.2275 128.592 25.2294 126.739L25.3434 23.5667C25.3476 19.7474 28.4546 16.6406 32.2698 16.6406H39.1748V18.0273C39.1748 21.8505 42.2852 24.9609 46.1084 24.9609H96.0303C99.8535 24.9609 102.964 21.8505 102.964 18.0273V16.6406H109.844C111.696 16.6406 113.436 17.3628 114.745 18.6741C116.053 19.9854 116.773 21.7285 116.771 23.5817L116.656 126.754Z"
        fill="#E3EBE9" />
    <path
        d="M72.4141 55.4688H101.971C104.268 55.4688 106.131 53.6061 106.131 51.3086C106.131 49.0111 104.268 47.1484 101.971 47.1484H72.4141C70.1165 47.1484 68.2539 49.0111 68.2539 51.3086C68.2539 53.6061 70.1165 55.4688 72.4141 55.4688Z"
        fill="#E3EBE9" />
    <path
        d="M72.4141 83.2031H101.971C104.268 83.2031 106.131 81.3405 106.131 79.043C106.131 76.7455 104.268 74.8828 101.971 74.8828H72.4141C70.1165 74.8828 68.2539 76.7455 68.2539 79.043C68.2539 81.3405 70.1165 83.2031 72.4141 83.2031Z"
        fill="#E3EBE9" />
    <path
        d="M102.09 102.617H72.4141C70.1165 102.617 68.2539 104.48 68.2539 106.777C68.2539 109.075 70.1165 110.938 72.4141 110.938H102.09C104.387 110.938 106.25 109.075 106.25 106.777C106.25 104.48 104.388 102.617 102.09 102.617Z"
        fill="#E3EBE9" />
    <path
        d="M54.7077 39.981L45.1138 49.5749L42.8518 47.3126C41.2271 45.6879 38.5932 45.6879 36.9685 47.3126C35.3438 48.937 35.3438 51.5712 36.9685 53.1959L42.1723 58.4C42.9525 59.1802 44.0105 59.6186 45.1141 59.6186C46.2174 59.6186 47.2754 59.1804 48.0556 58.4L60.5913 45.8646C62.2159 44.2402 62.2159 41.606 60.5913 39.9813C58.9666 38.3564 56.3327 38.3564 54.7077 39.981Z"
        fill="#E3EBE9" />
    <path
        d="M54.7077 69.8335L45.1138 79.4274L42.8518 77.1654C41.2271 75.5407 38.5932 75.5407 36.9685 77.1654C35.3438 78.7898 35.3438 81.4237 36.9685 83.0487L42.1723 88.2527C42.9525 89.0329 44.0105 89.4714 45.1141 89.4714C46.2174 89.4714 47.2757 89.0332 48.0556 88.2527L60.5913 75.7171C62.2159 74.0927 62.2159 71.4585 60.5913 69.8338C58.9666 68.2091 56.3324 68.2091 54.7077 69.8335Z"
        fill="#E3EBE9" />
    <path
        d="M54.7077 97.5679L45.1138 107.162L42.8518 104.9C41.2271 103.275 38.5932 103.275 36.9685 104.9C35.3438 106.524 35.3438 109.158 36.9685 110.783L42.1723 115.987C42.9525 116.767 44.0105 117.206 45.1141 117.206C46.2174 117.206 47.2757 116.768 48.0556 115.987L60.5913 103.451C62.2159 101.827 62.2159 99.1928 60.5913 97.5682C58.9666 95.9435 56.3324 95.9435 54.7077 97.5679Z"
        fill="#E3EBE9" />
</svg>