<svg width="142" height="142" viewBox="0 0 142 142" fill="none" xmlns="http://www.w3.org/2000/svg">
    <g clip-path="url(#clip0_148_82)">
        <path
            d="M140.667 43.7016C139.839 43.1988 138.808 43.1641 137.948 43.6106L105.397 60.515C104.268 61.1013 103.682 62.3807 103.977 63.6182L104.684 66.5908L82.5175 61.1981C78.3582 60.1855 73.9948 61.0605 70.5465 63.5977L69.1216 64.6463C64.0143 61.6127 57.9166 60.6928 52.0915 62.135L37.5171 65.7432L38.0227 63.6182C38.3173 62.3804 37.7318 61.101 36.6027 60.515L4.05171 43.6106C3.19167 43.1641 2.16162 43.1985 1.33347 43.7016C0.505598 44.2044 0 45.103 0 46.0718V95.9321C0 97.1413 0.783219 98.211 1.93586 98.576L24.9135 105.854C25.187 105.94 25.4693 105.983 25.7508 105.983C26.2251 105.983 26.6966 105.862 27.1176 105.623C27.7882 105.244 28.2708 104.602 28.4491 103.852L28.8257 102.269L31.0198 103.311C29.7853 106.532 30.4615 110.323 33.0538 112.916C34.7634 114.625 36.9952 115.5 39.2403 115.545C39.2855 117.79 40.1602 120.022 41.8698 121.731C43.5793 123.441 45.8111 124.316 48.0562 124.361C48.1014 126.606 48.9761 128.838 50.6857 130.547C52.3952 132.257 54.627 133.132 56.8721 133.177C56.9173 135.422 57.7921 137.654 59.5016 139.363C61.2577 141.119 63.5641 141.997 65.8708 141.997C68.1775 141.997 70.4841 141.119 72.24 139.363L76.419 135.184C77.5719 134.031 78.3438 132.64 78.7398 131.168C79.6248 131.448 80.544 131.59 81.4639 131.59C83.7706 131.59 86.0772 130.712 87.8331 128.956C89.5426 127.246 90.4174 125.015 90.4626 122.769C92.708 122.724 94.9395 121.849 96.649 120.139C98.3575 118.431 99.2322 116.201 99.2785 113.957C101.616 113.911 103.807 112.981 105.465 111.323C107.166 109.622 108.103 107.36 108.103 104.954C108.103 104.908 108.101 104.863 108.1 104.817L113.185 102.319L113.55 103.851C113.728 104.601 114.21 105.243 114.881 105.622C115.302 105.861 115.773 105.982 116.248 105.982C116.529 105.982 116.812 105.94 117.085 105.853L140.063 98.5752C141.215 98.2102 141.999 97.1405 141.999 95.9313V46.0718C142 45.103 141.494 44.2044 140.667 43.7016ZM5.54688 93.9014V50.6371L32.1256 64.44L23.7437 99.6649L5.54688 93.9014ZM36.9763 104.099L41.1553 99.9203C41.8298 99.2455 42.7159 98.9083 43.6023 98.9083C44.4884 98.9083 45.3745 99.2455 46.049 99.9203C46.7025 100.574 47.0627 101.443 47.0627 102.367C47.0627 103.291 46.7027 104.16 46.049 104.814L41.87 108.993C40.5208 110.343 38.3253 110.342 36.9763 108.993C35.627 107.644 35.627 105.449 36.9763 104.099ZM45.7925 112.916L49.9715 108.736C50.6463 108.062 51.5324 107.725 52.4185 107.725C53.3046 107.725 54.191 108.062 54.8655 108.736C56.2148 110.086 56.2148 112.281 54.8655 113.63L50.6862 117.81C49.3372 119.159 47.1418 119.159 45.7925 117.81C44.4432 116.46 44.4432 114.265 45.7925 112.916ZM54.6084 121.732L58.7877 117.552C59.4622 116.878 60.3483 116.54 61.2347 116.54C62.1208 116.54 63.007 116.878 63.6815 117.552C65.0307 118.902 65.0307 121.097 63.6815 122.446L59.5022 126.625C58.1532 127.975 55.9577 127.975 54.6084 126.625C53.2592 125.276 53.2592 123.081 54.6084 121.732ZM72.4977 131.262L68.3186 135.441C66.9696 136.791 64.7739 136.791 63.4246 135.441C62.0754 134.092 62.0754 131.897 63.4246 130.548L67.6039 126.368C68.2573 125.715 69.1265 125.355 70.0507 125.355C70.975 125.355 71.844 125.715 72.4977 126.368C73.8469 127.718 73.8469 129.913 72.4977 131.262ZM101.544 107.402C100.89 108.055 100.021 108.415 99.0971 108.415C98.1733 108.415 97.3047 108.056 96.651 107.402C96.6507 107.402 96.6504 107.402 96.6501 107.402L81.6811 92.4326C80.598 91.3495 78.8419 91.3495 77.7586 92.4326C76.6756 93.5156 76.6756 95.2717 77.7586 96.355L92.7277 111.324C94.0769 112.673 94.0769 114.869 92.7277 116.218C91.3787 117.568 89.1829 117.567 87.8339 116.218L72.8649 101.249C71.7818 100.166 70.0257 100.166 68.9424 101.249C67.8591 102.332 67.8594 104.088 68.9424 105.172L83.9115 120.141C84.5652 120.794 84.9252 121.663 84.9252 122.588C84.9252 123.512 84.5652 124.381 83.9117 125.034C82.5625 126.384 80.367 126.383 79.0177 125.034C79.0177 125.034 67.7812 113.808 67.6036 113.63C65.8941 111.921 63.6623 111.046 61.4172 111.001C61.372 108.756 60.4973 106.524 58.7877 104.814C57.0793 103.106 54.8494 102.231 52.6055 102.185C52.5591 99.8476 51.6298 97.6563 49.9715 95.9984C46.4595 92.4867 40.7451 92.4867 37.2331 95.9984L34.4375 98.794L30.1387 96.7519L36.0724 71.8159L53.4247 67.5199C57.0255 66.6285 60.7627 66.9352 64.1166 68.3297L59.1488 71.9848C54.9565 75.0692 53.8876 80.9084 56.7154 85.2782C58.5689 88.1423 61.7456 89.7734 65.0185 89.7734C66.1992 89.7734 67.3929 89.5609 68.5408 89.1178L83.3324 83.405C83.3324 83.405 101.528 102.493 101.544 102.509C102.893 103.857 102.893 106.052 101.544 107.402ZM106.286 99.529C106.043 99.2086 86.0689 78.2359 86.0689 78.2359C85.2716 77.3997 84.077 77.1712 83.0622 77.5625L66.5423 83.9425C64.6488 84.6739 62.4747 83.9678 61.372 82.264C60.1356 80.3534 60.6029 77.8005 62.4359 76.452L73.8342 68.0657C75.9581 66.5034 78.6453 65.9645 81.2068 66.5877L106.02 72.6244C106.055 72.633 106.09 72.6374 106.125 72.6444L111.87 96.7871L106.286 99.529ZM136.453 93.9014L118.256 99.6649L109.874 64.44L136.453 50.6371V93.9014Z"
            fill="#E3EBE9" />
        <path
            d="M21.8606 46.0593H45.9285V47.3914C45.9285 48.9232 47.1702 50.1648 48.702 50.1648H58.5196C60.0514 50.1648 61.2931 48.9232 61.2931 47.3914C61.2931 45.8596 60.0514 44.618 58.5196 44.618H51.4757V44.1007C51.4757 35.1478 58.7596 27.8642 67.7122 27.8642H68.2267V31.6521C68.2267 33.1839 69.4683 34.4256 71.0001 34.4256C72.5319 34.4256 73.7736 33.1839 73.7736 31.6521V27.8642H74.288C83.241 27.8642 90.5246 35.1478 90.5246 44.1007V44.618H83.4806C81.9488 44.618 80.7071 45.8596 80.7071 47.3914C80.7071 48.9232 81.9488 50.1648 83.4806 50.1648H93.298C94.8298 50.1648 96.0714 48.9232 96.0714 47.3914V46.0593H120.139C121.671 46.0593 122.913 44.8176 122.913 43.2859V40.298C122.913 31.3626 117.032 23.7769 108.938 21.2029C110.289 19.3528 111.09 17.0758 111.09 14.6143V11.1986C111.09 5.02491 106.067 0.00221252 99.8932 0.00221252C93.7196 0.00221252 88.6966 5.02491 88.6966 11.1986V14.6141C88.6966 17.0733 89.4953 19.3483 90.8446 21.1974C88.4625 21.9506 86.2371 23.1471 84.2721 24.7499C83.0723 24.1283 81.809 23.6144 80.4928 23.2225C82.0925 21.1771 83.0499 18.6059 83.0499 15.8139V12.0522C83.0499 5.40764 77.6442 0.00221252 70.9998 0.00221252C64.3555 0.00221252 58.9498 5.40792 58.9498 12.0522V15.8139C58.9498 18.6059 59.9069 21.1771 61.5069 23.2225C60.1906 23.6144 58.9273 24.1283 57.7276 24.7499C55.7626 23.1471 53.5372 21.9506 51.1551 21.1974C52.5043 19.3483 53.3031 17.073 53.3031 14.6141V11.1986C53.3031 5.02491 48.2804 0.00221252 42.1064 0.00221252C35.9325 0.00221252 30.9101 5.02491 30.9101 11.1986V14.6141C30.9101 17.0755 31.7102 19.3525 33.0617 21.2026C24.968 23.7769 19.0869 31.3626 19.0869 40.2978V43.2856C19.0872 44.8174 20.3289 46.0593 21.8606 46.0593ZM94.2437 11.1986C94.2437 8.08345 96.7781 5.54909 99.8935 5.54909C103.009 5.54909 105.543 8.08345 105.543 11.1986V14.6141C105.543 17.7292 103.009 20.2638 99.8935 20.2638C96.7784 20.2638 94.2437 17.7295 94.2437 14.6141V11.1986ZM96.9082 25.8104H97.1201V28.3711C97.1201 29.9029 98.3617 31.1446 99.8935 31.1446C101.425 31.1446 102.667 29.9029 102.667 28.3711V25.8104H102.879C110.867 25.8104 117.366 32.3094 117.366 40.2978V40.5122H95.7708C94.961 35.6487 92.5367 31.3257 89.066 28.1149C91.3835 26.617 94.0832 25.8104 96.9082 25.8104ZM64.497 12.0522C64.497 8.46647 67.4143 5.54909 71.0001 5.54909C74.5859 5.54909 77.5033 8.46647 77.5033 12.0522V15.8139C77.5033 19.3996 74.5859 22.317 71.0001 22.317C67.4143 22.317 64.497 19.3996 64.497 15.8139V12.0522ZM36.4572 11.1986C36.4572 8.08345 38.9916 5.54909 42.1067 5.54909C45.2218 5.54909 47.7565 8.08345 47.7565 11.1986V14.6141C47.7565 17.7292 45.2221 20.2638 42.1067 20.2638C38.9916 20.2638 36.4572 17.7295 36.4572 14.6141V11.1986ZM24.6341 40.2978C24.6341 32.3094 31.1331 25.8104 39.1214 25.8104H39.3333V28.3711C39.3333 29.9029 40.575 31.1446 42.1067 31.1446C43.6385 31.1446 44.8802 29.9029 44.8802 28.3711V25.8104H45.0921C47.9171 25.8104 50.6167 26.617 52.9342 28.1152C49.4635 31.326 47.0393 35.6489 46.2294 40.5124H24.6341V40.2978Z"
            fill="#E3EBE9" />
        <path
            d="M71 50.1646C72.5317 50.1646 73.7734 48.9228 73.7734 47.3911C73.7734 45.8594 72.5317 44.6177 71 44.6177C69.4683 44.6177 68.2266 45.8594 68.2266 47.3911C68.2266 48.9228 69.4683 50.1646 71 50.1646Z"
            fill="#E3EBE9" />
    </g>
    <defs>
        <clipPath id="clip0_148_82">
            <rect width="142" height="142" fill="white" />
        </clipPath>
    </defs>
</svg>