<svg width="142" height="142" viewBox="0 0 142 142" fill="none" xmlns="http://www.w3.org/2000/svg">
    <g clip-path="url(#clip0_148_53)">
        <path
            d="M141.053 68.351C128.147 52.6269 100.822 34.2769 71.0002 34.2769C41.0713 34.2769 13.7457 52.7516 0.947641 68.351C-0.31588 69.891 -0.31588 72.109 0.947641 73.649C14.1598 89.7535 41.5482 107.723 71.0002 107.723C101.499 107.723 128.707 88.6907 141.053 73.6493C142.316 72.109 142.316 69.891 141.053 68.351ZM99.3704 71C99.3704 86.6434 86.6435 99.3705 70.9999 99.3705C55.3559 99.3705 42.6294 86.6426 42.6294 71C42.6294 55.3566 55.3562 42.6295 70.9999 42.6295C86.6449 42.6298 99.3704 55.3583 99.3704 71ZM9.81819 71.0011C14.5189 66.1155 25.8533 55.5716 41.7643 48.8043C31.7792 61.9245 31.7753 80.0646 41.7596 93.1896C29.662 88.0623 18.4239 79.9616 9.81819 71.0011ZM100.236 93.1957C110.221 80.0752 110.225 61.9354 100.241 48.8104C112.338 53.9377 123.576 62.0387 132.182 70.9986C127.481 75.8848 116.147 86.4282 100.236 93.1957Z"
            fill="#E3EBE9" />
        <path
            d="M56.7998 71C56.7998 78.8301 63.1698 85.2 70.9998 85.2C78.8296 85.2 85.1998 78.8301 85.1998 71C85.1998 63.17 78.8296 56.8 70.9998 56.8C63.1698 56.8 56.7998 63.17 56.7998 71ZM76.8469 71C76.8469 74.2242 74.2238 76.8471 70.9998 76.8471C67.7756 76.8471 65.1527 74.2242 65.1527 71C65.1527 67.7758 67.7756 65.1529 70.9998 65.1529C74.2238 65.1529 76.8469 67.7758 76.8469 71Z"
            fill="#E3EBE9" />
        <path
            d="M71.0002 18.098C73.3067 18.098 75.1767 16.2281 75.1767 13.9216V4.17646C75.1767 1.86994 73.3067 -7.62939e-06 71.0002 -7.62939e-06C68.6937 -7.62939e-06 66.8237 1.86994 66.8237 4.17646V13.9216C66.8237 16.2281 68.6937 18.098 71.0002 18.098Z"
            fill="#E3EBE9" />
        <path
            d="M95.9195 23.6839C97.9219 24.8261 100.473 24.1297 101.616 22.125L107.174 12.3799C108.317 10.3763 107.62 7.82587 105.616 6.68291C103.612 5.54023 101.062 6.2377 99.9189 8.24185L94.3608 17.9869C93.2181 19.9903 93.9159 22.541 95.9195 23.6839Z"
            fill="#E3EBE9" />
        <path
            d="M40.3832 22.125C41.5259 24.1286 44.0763 24.8263 46.0802 23.6836C48.0838 22.541 48.7815 19.9903 47.6389 17.9867L42.0808 8.24156C40.9381 6.23797 38.3871 5.54022 36.3838 6.68291C34.3802 7.82559 33.6825 10.3763 34.8252 12.3799L40.3832 22.125Z"
            fill="#E3EBE9" />
        <path
            d="M71.0002 123.902C68.6937 123.902 66.8237 125.772 66.8237 128.078V137.824C66.8237 140.13 68.6937 142 71.0002 142C73.3067 142 75.1767 140.13 75.1767 137.824V128.078C75.1767 125.772 73.3067 123.902 71.0002 123.902Z"
            fill="#E3EBE9" />
        <path
            d="M46.0802 118.316C44.0766 117.174 41.5262 117.871 40.3832 119.875L34.8252 129.62C33.6825 131.624 34.3802 134.174 36.3838 135.317C38.3877 136.46 40.9381 135.762 42.0808 133.758L47.6389 124.013C48.7818 122.01 48.0838 119.459 46.0802 118.316Z"
            fill="#E3EBE9" />
        <path
            d="M101.616 119.875C100.474 117.871 97.9225 117.174 95.9195 118.316C93.9159 119.459 93.2181 122.009 94.3608 124.013L99.9189 133.758C101.061 135.762 103.612 136.46 105.616 135.317C107.619 134.174 108.317 131.624 107.174 129.62L101.616 119.875Z"
            fill="#E3EBE9" />
    </g>
    <defs>
        <clipPath id="clip0_148_53">
            <rect width="142" height="142" fill="white" />
        </clipPath>
    </defs>
</svg>