<svg width="150" height="150" viewBox="0 0 150 150" fill="none" xmlns="http://www.w3.org/2000/svg">
    <g clip-path="url(#clip0_148_78)">
        <path
            d="M140.704 27.9292H89.1188C89.0478 27.9292 88.9849 27.8914 88.9551 27.8308L83.6347 17.039C82.1333 13.9846 78.9632 12.0116 75.5575 12.0116H44.3723C39.4078 12.0116 35.3692 16.0514 35.3692 21.017V29.8438H26.5389C21.5756 29.8438 17.537 33.8824 17.537 38.8469V47.6737H8.71012C3.74566 47.6737 -0.292969 51.7124 -0.292969 56.6768V129.53C-0.292969 134.495 3.74566 138.533 8.71012 138.533H105.043C110.008 138.533 114.046 134.495 114.046 129.53V120.702H122.874C127.839 120.702 131.877 116.663 131.877 111.7V102.873H140.704C145.669 102.873 149.707 98.8347 149.707 93.8702V36.9346C149.707 31.969 145.669 27.9292 140.704 27.9292ZM105.043 129.71H8.71012C8.6117 129.71 8.53044 129.63 8.53044 129.53V56.6768C8.53044 56.5773 8.6117 56.4972 8.71012 56.4972H39.8976C39.9274 56.4972 39.956 56.5075 39.9812 56.5212C39.9846 56.5235 39.9892 56.5223 39.9926 56.5246C40.0029 56.5315 40.0086 56.5441 40.0178 56.5521C40.0327 56.567 40.0498 56.5796 40.059 56.5979L45.3816 67.3931C46.9094 70.4899 50.0039 72.4148 53.4566 72.4148H105.043C105.067 72.4148 105.091 72.4194 105.113 72.4285C105.177 72.456 105.222 72.5201 105.222 72.5944C105.222 103.709 105.223 129.246 105.223 129.53C105.223 129.63 105.143 129.71 105.043 129.71ZM123.054 111.7C123.054 111.799 122.974 111.879 122.875 111.879H114.046V72.5944C114.046 67.6288 110.007 63.5902 105.042 63.5902H53.4566C53.3902 63.5902 53.3261 63.5502 53.2964 63.4895L47.9726 52.6943C46.4459 49.6009 43.3526 47.6737 39.8988 47.6737H26.3604V38.8469C26.3604 38.7473 26.4405 38.6672 26.5389 38.6672H57.7276C57.7962 38.6672 57.858 38.705 57.8889 38.7691L63.2127 49.5643C64.7416 52.6611 67.835 54.5848 71.2865 54.5848H122.875C122.974 54.5848 123.054 54.665 123.054 54.7645V111.7ZM140.884 93.8702C140.884 93.9698 140.804 94.0499 140.704 94.0499H131.877V54.7645C131.877 49.8001 127.84 45.7614 122.875 45.7614H71.2865C71.219 45.7614 71.1561 45.7214 71.1252 45.6596L65.8025 34.8678C64.277 31.7687 61.1825 29.8438 57.7276 29.8438H44.1926V21.017C44.1926 20.9163 44.2727 20.835 44.3711 20.835H75.5563C75.6239 20.835 75.6868 20.8728 75.7177 20.9357L81.0415 31.7344C82.5693 34.8289 85.6638 36.7526 89.1188 36.7526H140.704C140.803 36.7526 140.883 36.8339 140.883 36.9357V93.8702H140.884Z"
            fill="#E3EBE9" />
        <path
            d="M78.106 110.527C75.6696 110.527 73.6943 112.502 73.6943 114.939V117.49C73.6943 119.926 75.6696 121.901 78.106 121.901C80.5425 121.901 82.5177 119.926 82.5177 117.49V114.939C82.5177 112.502 80.5425 110.527 78.106 110.527Z"
            fill="#E3EBE9" />
        <path
            d="M90.9625 110.527C88.526 110.527 86.5508 112.502 86.5508 114.939V117.49C86.5508 119.926 88.526 121.901 90.9625 121.901C93.3989 121.901 95.3742 119.926 95.3742 117.49V114.939C95.3742 112.502 93.3989 110.527 90.9625 110.527Z"
            fill="#E3EBE9" />
    </g>
    <defs>
        <clipPath id="clip0_148_78">
            <rect width="150" height="150" fill="white" />
        </clipPath>
    </defs>
</svg>